<svg xmlns="http://www.w3.org/2000/svg" viewBox="0 0 377.06 274.42"><defs><style>.cls-1{fill:#496bb3;}.cls-2{fill:#231f20;}</style></defs><g id="Layer_2" data-name="Layer 2"><g id="Layer_1-2" data-name="Layer 1"><rect class="cls-1" x="135.47" y="-56.68" width="200" height="322" transform="translate(320.38 -135.47) rotate(90)"/><path class="cls-2" d="M19.4,278.74V29.26H76.69q16.94,0,29.42,3.7A51.7,51.7,0,0,1,126.9,44.35a46.48,46.48,0,0,1,12.32,19.56q4,11.86,4,27.87,0,15.41-3.85,26.65t-11.7,17.71q-7.86,6.47-20.18,8.31,15.09,3.39,24.33,11.55A48.85,48.85,0,0,1,145.53,177Q150,189.73,150,207.59a108.77,108.77,0,0,1-3.7,29.26,58.33,58.33,0,0,1-11.55,22.49,52.2,52.2,0,0,1-20,14.32q-12.17,5.08-28.8,5.08ZM54.21,133.36H74.84q14.79,0,23.1-4.15a23.33,23.33,0,0,0,11.71-13.4q3.39-9.24,3.39-24,0-17.23-5.24-24.94T91.48,57.13q-11.1-2-29-2H54.21Zm0,120.43H77.62q23.4,0,31.26-10.93t7.85-35.27q0-15.71-4.16-26.33a31.18,31.18,0,0,0-13.24-16q-9.09-5.38-24.49-5.39H54.21Z" transform="translate(-19.4 -4.32)"/></g></g></svg>